<svg width="144" height="340" viewBox="0 0 144 340" fill="none" xmlns="http://www.w3.org/2000/svg">
<g opacity="0.6">
<path fill-rule="evenodd" clip-rule="evenodd" d="M120.931 0.68972C120.931 1.06907 120.62 1.37944 120.241 1.37944C119.862 1.37944 119.551 1.58636 119.551 1.83925C119.551 2.09215 119.241 2.29907 118.862 2.29907C118.482 2.29907 118.172 2.59289 118.172 2.95246C118.172 3.31158 117.551 3.74196 116.793 3.90841C116.034 4.07486 115.413 4.50525 115.413 4.86436C115.413 5.22393 115.178 5.51776 114.891 5.51776C114.604 5.51776 113.898 6.02677 113.321 6.6489C112.744 7.27057 111.738 7.91384 111.084 8.07799C110.43 8.24215 109.895 8.66426 109.895 9.01602C109.895 9.36823 109.664 9.65607 109.382 9.65607C109.099 9.65607 108.065 10.4837 107.083 11.4953C106.101 12.5069 105.091 13.3346 104.838 13.3346C104.584 13.3346 104.378 13.645 104.378 14.0243C104.378 14.4036 104.067 14.714 103.688 14.714C103.309 14.714 102.998 15.0244 102.998 15.4037C102.998 15.7831 102.688 16.0935 102.308 16.0935C101.929 16.0935 101.619 16.4038 101.619 16.7832C101.619 17.1625 101.308 17.4729 100.929 17.4729C100.55 17.4729 100.239 17.7833 100.239 18.1626C100.239 18.542 99.9289 18.8523 99.5495 18.8523C99.1702 18.8523 98.8598 19.1627 98.8598 19.5421C98.8598 19.9214 98.5494 20.2318 98.1701 20.2318C97.7907 20.2318 97.4804 20.5422 97.4804 20.9215C97.4804 21.3008 97.17 21.6112 96.7907 21.6112C96.4113 21.6112 96.1009 21.9216 96.1009 22.3009C96.1009 22.6803 95.7906 22.9907 95.4112 22.9907C95.0319 22.9907 94.7215 23.301 94.7215 23.6804C94.7215 24.0597 94.4111 24.3701 94.0318 24.3701C93.6524 24.3701 93.3421 24.5867 93.3421 24.852C93.3421 25.1168 92.8248 25.813 92.1925 26.3988C91.5603 26.9851 91.043 27.6265 91.043 27.8251C91.043 28.0233 90.3188 28.8891 89.4336 29.7485C88.5485 30.6084 87.8243 31.5183 87.8243 31.7712C87.8243 32.0241 87.336 32.6867 86.7387 33.2436C86.1414 33.8004 85.4967 34.7541 85.3054 35.3624C85.1142 35.9707 84.4934 36.9018 83.926 37.4315C83.3586 37.9613 82.7378 38.8924 82.5466 39.5007C82.3553 40.109 81.7203 41.0507 81.1349 41.5933C80.5496 42.1354 79.9307 43.1378 79.7596 43.8206C79.5881 44.503 79.2801 45.0617 79.0745 45.0617C78.869 45.0617 78.5687 45.665 78.4064 46.4025C78.2446 47.1405 77.8142 47.8578 77.4505 47.9976C77.0867 48.1374 76.7888 48.7751 76.7888 49.4156C76.7888 50.0557 76.5984 50.5794 76.3653 50.5794C76.1326 50.5794 75.8057 51.2002 75.6393 51.9589C75.4728 52.7176 75.1624 53.3383 74.9495 53.3383C74.7366 53.3383 74.4263 53.9591 74.2598 54.7178C74.0934 55.4764 73.7936 56.0972 73.594 56.0972C73.3944 56.0972 73.1163 56.9548 72.9756 58.0027C72.8353 59.0506 72.5295 60.0337 72.2964 60.1868C72.0638 60.3399 71.7451 61.2765 71.5883 62.2674C71.432 63.2588 71.1142 64.1899 70.8829 64.3366C70.6521 64.4837 70.3091 65.7418 70.1215 67.1327C69.9339 68.5236 69.6203 69.7651 69.4249 69.8916C69.2295 70.018 68.9954 71.5699 68.9057 73.3402L68.7421 76.5589L70.5813 76.7079C71.5929 76.7902 72.5861 77.152 72.7884 77.5125C73.0372 77.9567 73.9756 78.1682 75.6949 78.1682C77.3387 78.1682 78.4772 78.4115 78.9237 78.8579C79.3293 79.2635 80.4526 79.5477 81.6495 79.5477C83.1531 79.5477 83.686 79.7279 83.686 80.2374C83.686 80.7459 84.2171 80.9271 85.7059 80.9271C87.0771 80.9271 87.811 81.1487 87.9908 81.6168C88.1636 82.0679 88.88 82.3065 90.0599 82.3065C91.2393 82.3065 91.9557 82.5452 92.1291 82.9963C92.2744 83.3756 92.9319 83.686 93.5904 83.686C94.2488 83.686 95.0976 83.9964 95.477 84.3757C95.8563 84.7551 96.7727 85.0654 97.513 85.0654C98.4037 85.0654 98.8598 85.299 98.8598 85.7551C98.8598 86.2094 99.3141 86.4449 100.19 86.4449C100.948 86.4449 101.634 86.7414 101.785 87.1346C101.93 87.5139 102.551 87.8243 103.165 87.8243C103.778 87.8243 104.398 88.1347 104.544 88.514C104.689 88.8934 105.31 89.2037 105.923 89.2037C106.536 89.2037 107.157 89.5141 107.303 89.8935C107.448 90.2728 108.091 90.5832 108.732 90.5832C109.459 90.5832 109.895 90.8416 109.895 91.2729C109.895 91.6522 110.206 91.9626 110.585 91.9626C110.964 91.9626 111.275 92.153 111.275 92.3861C111.275 92.6188 111.896 92.9457 112.654 93.1122C113.413 93.2786 114.034 93.709 114.034 94.0681C114.034 94.4277 114.344 94.7215 114.723 94.7215C115.103 94.7215 115.413 94.9119 115.413 95.145C115.413 95.3776 116.034 95.7046 116.793 95.871C117.551 96.0375 118.172 96.4679 118.172 96.827C118.172 97.2463 118.666 97.4804 119.551 97.4804C120.437 97.4804 120.931 97.2463 120.931 96.827C120.931 96.4679 121.552 96.0375 122.31 95.871C123.069 95.7046 123.69 95.3776 123.69 95.145C123.69 94.9119 124 94.7215 124.379 94.7215C124.759 94.7215 125.069 94.4277 125.069 94.0681C125.069 93.709 125.69 93.2786 126.449 93.1122C127.207 92.9457 127.828 92.6188 127.828 92.3861C127.828 92.153 128.138 91.9626 128.518 91.9626C128.897 91.9626 129.207 91.6522 129.207 91.2729C129.207 90.8131 129.667 90.5832 130.587 90.5832C131.507 90.5832 131.966 90.3533 131.966 89.8935C131.966 89.4336 132.426 89.2037 133.346 89.2037C134.265 89.2037 134.725 88.9738 134.725 88.514C134.725 88.0542 135.185 87.8243 136.105 87.8243C137.024 87.8243 137.484 87.5944 137.484 87.1346C137.484 86.6748 137.944 86.4449 138.864 86.4449C139.783 86.4449 140.243 86.215 140.243 85.7551C140.243 85.2953 140.703 85.0654 141.622 85.0654C142.542 85.0654 143.002 84.8355 143.002 84.3757C143.002 83.8649 143.538 83.686 145.071 83.686C146.604 83.686 147.14 83.5071 147.14 82.9963C147.14 82.4854 147.677 82.3065 149.209 82.3065C150.742 82.3065 151.279 82.1277 151.279 81.6168C151.279 81.106 151.815 80.9271 153.348 80.9271C154.88 80.9271 155.417 80.7482 155.417 80.2374C155.417 79.7072 156.006 79.5477 157.96 79.5477C159.797 79.5477 160.577 79.3559 160.768 78.8579C160.958 78.3641 161.73 78.1682 163.49 78.1682C165.113 78.1682 166.072 77.9498 166.314 77.5254C166.577 77.066 167.919 76.8361 171.012 76.7207C173.946 76.6108 175.404 76.3736 175.534 75.9841C175.639 75.6682 176.018 75.4093 176.376 75.4093C176.794 75.4093 177.028 74.9137 177.028 74.0299C177.028 73.2712 176.851 72.6505 176.634 72.6505C176.418 72.6505 176.102 71.1593 175.932 69.3366C175.763 67.5139 175.455 65.9101 175.248 65.773C175.041 65.6356 174.743 64.7122 174.586 63.7214C174.43 62.73 174.12 61.7989 173.897 61.6522C173.674 61.5051 173.364 60.5739 173.207 59.583C173.051 58.5917 172.738 57.6606 172.513 57.5139C172.287 57.3667 171.96 56.471 171.786 55.5224C171.611 54.5743 171.28 53.7981 171.05 53.7981C170.821 53.7981 170.496 53.0739 170.33 52.1888C170.164 51.3036 169.861 50.5794 169.656 50.5794C169.452 50.5794 169.148 49.9587 168.981 49.2C168.815 48.4413 168.51 47.8206 168.305 47.8206C168.099 47.8206 167.801 47.3033 167.643 46.671C167.484 46.0388 167.151 45.5215 166.903 45.5215C166.655 45.5215 166.452 45.1077 166.452 44.6019C166.452 44.091 166.146 43.6822 165.763 43.6822C165.331 43.6822 165.073 43.2463 165.073 42.5185C165.073 41.8779 164.781 41.2425 164.425 41.1054C164.068 40.9689 163.65 40.3546 163.496 39.7407C163.342 39.1264 163.013 38.6243 162.765 38.6243C162.517 38.6243 162.314 38.2105 162.314 37.7047C162.314 37.1938 162.007 36.785 161.624 36.785C161.245 36.785 160.935 36.4747 160.935 36.0953C160.935 35.716 160.641 35.4056 160.281 35.4056C159.922 35.4056 159.492 34.7849 159.325 34.0262C159.159 33.2675 158.832 32.6467 158.599 32.6467C158.366 32.6467 158.176 32.3364 158.176 31.957C158.176 31.5777 157.865 31.2673 157.486 31.2673C157.107 31.2673 156.796 30.9569 156.796 30.5776C156.796 30.1982 156.508 29.8878 156.156 29.8878C155.804 29.8878 155.386 29.3706 155.228 28.7383C155.069 28.1061 154.736 27.5888 154.488 27.5888C154.24 27.5888 154.037 27.2784 154.037 26.8991C154.037 26.5197 153.727 26.2093 153.348 26.2093C152.968 26.2093 152.658 25.8925 152.658 25.5054C152.658 25.1177 152.348 24.6818 151.968 24.5365C151.589 24.3908 151.279 23.9834 151.279 23.6312C151.279 23.279 150.968 22.9907 150.589 22.9907C150.209 22.9907 149.899 22.6803 149.899 22.3009C149.899 21.9216 149.589 21.6112 149.209 21.6112C148.83 21.6112 148.52 21.3008 148.52 20.9215C148.52 20.5422 148.209 20.2318 147.83 20.2318C147.451 20.2318 147.14 19.9214 147.14 19.5421C147.14 19.1627 146.83 18.8523 146.45 18.8523C146.071 18.8523 145.761 18.542 145.761 18.1626C145.761 17.7833 145.45 17.4729 145.071 17.4729C144.692 17.4729 144.381 17.1625 144.381 16.7832C144.381 16.4038 144.165 16.0935 143.899 16.0935C143.635 16.0935 142.938 15.5762 142.353 14.9439C141.766 14.3117 141.052 13.7944 140.765 13.7944C140.478 13.7944 140.243 13.484 140.243 13.1047C140.243 12.7253 139.933 12.415 139.553 12.415C139.174 12.415 138.864 12.1046 138.864 11.7252C138.864 11.3459 138.553 11.0355 138.174 11.0355C137.794 11.0355 137.484 10.7417 137.484 10.3821C137.484 10.023 136.863 9.59262 136.105 9.42617C135.346 9.25972 134.725 8.82933 134.725 8.47022C134.725 8.11065 134.415 7.81682 134.036 7.81682C133.656 7.81682 133.346 7.60991 133.346 7.35701C133.346 7.10411 133.035 6.8972 132.656 6.8972C132.277 6.8972 131.966 6.60337 131.966 6.2438C131.966 5.88469 131.346 5.4543 130.587 5.28785C129.828 5.1214 129.207 4.69102 129.207 4.3319C129.207 3.97233 128.897 3.6785 128.518 3.6785C128.138 3.6785 127.828 3.47159 127.828 3.21869C127.828 2.96579 127.518 2.75888 127.138 2.75888C126.759 2.75888 126.449 2.46506 126.449 2.10548C126.449 1.74637 125.828 1.31599 125.069 1.14953C124.31 0.98308 123.69 0.656156 123.69 0.42349C123.69 0.190365 123.069 0 122.31 0C121.391 0 120.931 0.229907 120.931 0.68972ZM31.7271 89.6042C31.7271 89.8245 30.515 90.1418 29.0331 90.3091L26.3395 90.614L26.0512 93.7002C25.893 95.3974 25.5532 96.8559 25.2966 96.9415C24.5623 97.1866 24.6681 118.041 25.4047 118.286C25.8065 118.42 26.0268 120.045 26.1371 123.688C26.2489 127.381 26.4834 129.087 26.9418 129.546C27.2977 129.902 27.5888 130.592 27.5888 131.079C27.5888 131.877 27.9378 131.966 31.0374 131.966C32.9341 131.966 34.486 132.142 34.486 132.356C34.486 132.57 37.5184 132.868 41.2241 133.018C44.9302 133.169 48.0859 133.479 48.2362 133.709C48.387 133.938 50.2548 134.257 52.3865 134.418C54.5187 134.578 56.3809 134.888 56.5248 135.107C56.6692 135.326 58.1204 135.641 59.75 135.807C61.3795 135.973 62.8279 136.287 62.9686 136.505C63.1093 136.722 64.4138 137.046 65.8682 137.225C67.3226 137.404 68.5122 137.743 68.5122 137.977C68.5122 138.212 69.2216 138.404 70.0888 138.404C70.9556 138.404 71.9405 138.679 72.2766 139.015C72.6132 139.351 73.6975 139.758 74.6865 139.919C75.6751 140.079 76.6049 140.392 76.7515 140.615C76.8987 140.838 77.8298 141.148 78.8207 141.305C79.8121 141.462 80.7432 141.772 80.8899 141.995C81.037 142.218 81.7263 142.54 82.4215 142.71C83.1167 142.88 83.686 143.223 83.686 143.47C83.686 143.719 84.3132 143.921 85.0797 143.921C85.8945 143.921 86.5837 144.208 86.7382 144.611C86.884 144.991 87.5047 145.301 88.1177 145.301C88.731 145.301 89.3518 145.611 89.4971 145.991C89.6429 146.37 90.2636 146.68 90.8765 146.68C91.4899 146.68 92.1107 146.991 92.256 147.37C92.4017 147.749 93.0225 148.06 93.6354 148.06C94.2488 148.06 94.8696 148.37 95.0149 148.75C95.1606 149.129 95.7749 149.439 96.38 149.439C97.0514 149.439 97.4804 149.708 97.4804 150.129C97.4804 150.508 97.8795 150.819 98.3673 150.819C98.8548 150.819 99.5541 151.119 99.9211 151.486C100.288 151.852 101.13 152.289 101.793 152.455C102.456 152.622 102.998 152.942 102.998 153.167C102.998 153.393 103.309 153.578 103.688 153.578C104.067 153.578 104.378 153.888 104.378 154.267C104.378 154.647 104.688 154.957 105.067 154.957C105.447 154.957 105.757 155.267 105.757 155.647C105.757 156.026 106.156 156.336 106.644 156.336C107.131 156.336 107.841 156.647 108.22 157.026C108.6 157.406 109.132 157.716 109.403 157.716C109.674 157.716 109.895 158.026 109.895 158.406C109.895 158.785 110.206 159.095 110.585 159.095C110.964 159.095 111.275 159.406 111.275 159.785C111.275 160.164 111.674 160.475 112.162 160.475C112.649 160.475 113.359 160.785 113.738 161.164C114.117 161.544 114.649 161.854 114.921 161.854C115.191 161.854 115.413 162.165 115.413 162.544C115.413 162.923 115.723 163.234 116.103 163.234C116.482 163.234 116.793 163.544 116.793 163.923C116.793 164.303 117.103 164.613 117.482 164.613C117.862 164.613 118.172 164.923 118.172 165.303C118.172 165.682 118.482 165.993 118.862 165.993C119.241 165.993 119.551 166.303 119.551 166.682C119.551 167.062 119.862 167.372 120.241 167.372C120.62 167.372 120.931 167.658 120.931 168.008C120.931 168.717 122.848 169.225 124.196 168.873C124.676 168.747 125.069 168.358 125.069 168.008C125.069 167.658 125.38 167.372 125.759 167.372C126.138 167.372 126.449 167.062 126.449 166.682C126.449 166.303 126.759 165.993 127.138 165.993C127.518 165.993 127.828 165.682 127.828 165.303C127.828 164.923 128.138 164.613 128.518 164.613C128.897 164.613 129.207 164.303 129.207 163.923C129.207 163.544 129.518 163.234 129.897 163.234C130.277 163.234 130.587 162.923 130.587 162.544C130.587 162.165 130.897 161.854 131.277 161.854C131.656 161.854 131.966 161.544 131.966 161.164C131.966 160.785 132.277 160.475 132.656 160.475C133.035 160.475 133.346 160.284 133.346 160.051C133.346 159.819 133.967 159.492 134.725 159.325C135.484 159.159 136.105 158.728 136.105 158.369C136.105 158.01 136.415 157.716 136.794 157.716C137.174 157.716 137.484 157.406 137.484 157.026C137.484 156.647 137.689 156.336 137.939 156.336C138.189 156.336 138.809 155.98 139.318 155.545C140.456 154.57 140.62 151.394 139.553 150.985C139.102 150.812 138.864 150.095 138.864 148.916C138.864 147.736 138.625 147.02 138.174 146.847C137.781 146.696 137.484 146.01 137.484 145.252C137.484 144.376 137.249 143.921 136.794 143.921C136.296 143.921 136.105 143.411 136.105 142.082C136.105 140.754 135.913 140.243 135.415 140.243C134.955 140.243 134.725 139.783 134.725 138.864C134.725 137.944 134.495 137.484 134.036 137.484C133.576 137.484 133.346 137.024 133.346 136.105C133.346 135.185 133.116 134.725 132.656 134.725C132.273 134.725 131.966 134.316 131.966 133.806C131.966 133.295 131.66 132.886 131.277 132.886C130.848 132.886 130.587 132.452 130.587 131.736C130.587 131.021 130.326 130.587 129.897 130.587C129.514 130.587 129.207 130.178 129.207 129.667C129.207 129.156 128.901 128.748 128.518 128.748C128.089 128.748 127.828 128.314 127.828 127.598C127.828 126.883 127.567 126.449 127.138 126.449C126.755 126.449 126.449 126.04 126.449 125.529C126.449 125.018 126.142 124.609 125.759 124.609C125.33 124.609 125.069 124.175 125.069 123.46C125.069 122.744 124.808 122.31 124.379 122.31C124 122.31 123.69 122 123.69 121.621C123.69 121.241 123.379 120.931 123 120.931C122.621 120.931 122.31 120.62 122.31 120.241C122.31 119.862 122 119.551 121.621 119.551C121.241 119.551 120.931 119.241 120.931 118.862C120.931 118.482 120.62 118.172 120.241 118.172C119.862 118.172 119.551 117.862 119.551 117.482C119.551 117.103 119.241 116.793 118.862 116.793C118.482 116.793 118.172 116.482 118.172 116.103C118.172 115.723 117.862 115.413 117.482 115.413C117.103 115.413 116.793 115.103 116.793 114.723C116.793 114.344 116.482 114.034 116.103 114.034C115.723 114.034 115.413 113.723 115.413 113.344C115.413 112.965 115.103 112.654 114.723 112.654C114.344 112.654 114.034 112.344 114.034 111.964C114.034 111.585 113.723 111.275 113.344 111.275C112.965 111.275 112.654 110.981 112.654 110.621C112.654 110.262 112.033 109.832 111.275 109.665C110.516 109.499 109.895 109.172 109.895 108.939C109.895 108.706 109.585 108.516 109.206 108.516C108.826 108.516 108.516 108.222 108.516 107.862C108.516 107.503 107.895 107.073 107.136 106.907C106.378 106.74 105.757 106.413 105.757 106.18C105.757 105.947 105.447 105.757 105.067 105.757C104.688 105.757 104.378 105.447 104.378 105.067C104.378 104.636 103.942 104.378 103.214 104.378C102.573 104.378 101.936 104.08 101.796 103.716C101.656 103.352 100.939 102.922 100.201 102.76C99.4631 102.598 98.8598 102.275 98.8598 102.042C98.8598 101.809 98.5642 101.619 98.2028 101.619C97.8418 101.619 97.261 101.334 96.9125 100.985C96.564 100.637 95.6181 100.206 94.8102 100.029C94.0028 99.8516 93.3421 99.516 93.3421 99.2833C93.3421 99.0502 92.8183 98.8598 92.1783 98.8598C91.5378 98.8598 90.8949 98.5494 90.7496 98.1701C90.6007 97.7825 89.9164 97.4804 89.1872 97.4804C88.474 97.4804 87.5797 97.17 87.2003 96.7907C86.821 96.4113 85.8899 96.1009 85.1312 96.1009C84.3725 96.1009 83.4749 95.8241 83.137 95.4862C82.799 95.1482 81.6164 94.75 80.5087 94.6015C79.4014 94.453 78.3701 94.1375 78.217 93.9007C78.0638 93.6639 76.8302 93.366 75.4751 93.2391C74.1205 93.1117 72.879 92.7967 72.7162 92.5388C72.5539 92.2808 70.8066 91.9893 68.834 91.8909C66.8614 91.7929 65.1026 91.4885 64.9256 91.2154C64.7417 90.9308 62.2453 90.6048 59.097 90.4535C55.8204 90.2958 53.5236 89.9891 53.4257 89.6962C53.2243 89.0911 31.7271 89 31.7271 89.6042ZM186.6 89.6865C186.505 89.9712 183.988 90.2825 180.469 90.4448C177.007 90.6043 174.364 90.9285 174.177 91.2163C174 91.489 172.241 91.792 170.269 91.889C167.844 92.0086 166.563 92.2725 166.314 92.7038C166.073 93.1227 165.102 93.3421 163.49 93.3421C161.73 93.3421 160.958 93.5379 160.768 94.0318C160.595 94.4838 159.878 94.7215 158.688 94.7215C157.69 94.7215 156.802 94.9335 156.716 95.1923C156.63 95.4512 155.733 95.7929 154.723 95.9515C153.714 96.1106 152.722 96.5194 152.52 96.8605C152.31 97.2137 151.371 97.4804 150.336 97.4804C149.028 97.4804 148.52 97.6735 148.52 98.1701C148.52 98.6299 148.06 98.8598 147.14 98.8598C146.221 98.8598 145.761 99.0897 145.761 99.5495C145.761 100.009 145.301 100.239 144.381 100.239C143.462 100.239 143.002 100.469 143.002 100.929C143.002 101.389 142.542 101.619 141.622 101.619C140.703 101.619 140.243 101.849 140.243 102.308C140.243 102.768 139.783 102.998 138.864 102.998C137.944 102.998 137.484 103.228 137.484 103.688C137.484 104.148 137.024 104.378 136.105 104.378C135.185 104.378 134.725 104.607 134.725 105.067C134.725 105.447 134.415 105.757 134.036 105.757C133.656 105.757 133.346 106.067 133.346 106.447C133.346 106.907 132.886 107.136 131.966 107.136C131.208 107.136 130.587 107.343 130.587 107.596C130.587 107.849 130.897 108.056 131.277 108.056C131.66 108.056 131.966 108.465 131.966 108.976C131.966 109.487 132.273 109.895 132.656 109.895C133.085 109.895 133.346 110.329 133.346 111.045C133.346 111.76 133.607 112.194 134.036 112.194C134.415 112.194 134.725 112.505 134.725 112.884C134.725 113.263 135.036 113.574 135.415 113.574C135.798 113.574 136.105 113.983 136.105 114.493C136.105 115.004 136.411 115.413 136.794 115.413C137.174 115.413 137.484 115.723 137.484 116.103C137.484 116.482 137.794 116.793 138.174 116.793C138.553 116.793 138.864 117.014 138.864 117.285C138.864 117.556 139.174 118.088 139.553 118.468C139.933 118.847 140.243 119.556 140.243 120.044C140.243 120.532 140.553 120.931 140.933 120.931C141.312 120.931 141.622 121.152 141.622 121.423C141.622 121.695 141.933 122.227 142.312 122.606C142.691 122.985 143.002 123.695 143.002 124.182C143.002 124.67 143.312 125.069 143.692 125.069C144.121 125.069 144.381 125.503 144.381 126.219C144.381 126.934 144.642 127.368 145.071 127.368C145.531 127.368 145.761 127.828 145.761 128.748C145.761 129.667 145.991 130.127 146.45 130.127C146.91 130.127 147.14 130.587 147.14 131.507C147.14 132.426 147.37 132.886 147.83 132.886C148.29 132.886 148.52 133.346 148.52 134.265C148.52 135.185 148.75 135.645 149.209 135.645C149.669 135.645 149.899 136.105 149.899 137.024C149.899 137.944 150.129 138.404 150.589 138.404C151.071 138.404 151.279 138.889 151.279 140.013C151.279 141.137 151.486 141.622 151.968 141.622C152.466 141.622 152.658 142.133 152.658 143.462C152.658 144.79 152.85 145.301 153.348 145.301C153.727 145.301 154.037 145.611 154.037 145.991C154.037 146.37 154.348 146.68 154.727 146.68C155.106 146.68 155.417 146.49 155.417 146.257C155.417 146.024 156.038 145.697 156.796 145.531C157.555 145.364 158.176 145.04 158.176 144.81C158.176 144.58 158.99 144.262 159.986 144.103C160.982 143.944 161.907 143.527 162.041 143.178C162.176 142.828 162.895 142.542 163.641 142.542C164.386 142.542 165.067 142.33 165.153 142.071C165.239 141.812 166.134 141.467 167.142 141.303C168.149 141.14 169.248 140.731 169.585 140.395C169.921 140.058 170.785 139.783 171.505 139.783C172.224 139.783 172.886 139.563 172.976 139.293C173.066 139.024 174.066 138.683 175.199 138.535C176.331 138.387 177.391 138.062 177.554 137.812C177.716 137.563 178.958 137.255 180.312 137.127C181.668 137 182.891 136.719 183.031 136.503C183.172 136.286 184.62 135.973 186.25 135.807C187.88 135.641 189.331 135.326 189.475 135.107C189.619 134.888 191.481 134.578 193.613 134.418C195.745 134.257 197.624 133.921 197.787 133.67C197.951 133.42 201.106 133.113 204.799 132.987C209.86 132.815 211.514 132.613 211.514 132.166C211.514 131.839 211.79 131.296 212.127 130.959C212.526 130.561 212.846 128.496 213.042 125.065C213.209 122.16 213.554 119.715 213.809 119.63C214.443 119.418 214.447 93.3421 213.813 93.3421C213.56 93.3421 213.353 92.7494 213.353 92.0251C213.353 90.8071 213.193 90.6862 211.22 90.4158C210.047 90.2549 208.495 90.1234 207.771 90.1234C207.048 90.1234 206.456 89.9165 206.456 89.6636C206.456 89.0157 186.816 89.0387 186.6 89.6865ZM9.77103 146.99C6.56429 147.091 4.13832 147.36 4.13832 147.614C4.13832 147.859 3.51757 148.06 2.75888 148.06H1.37944V150.819C1.37944 152.965 1.22632 153.578 0.68972 153.578C0.091043 153.578 0 155.494 0 168.062C0 180.63 0.091043 182.546 0.68972 182.546C1.26449 182.546 1.37944 183.465 1.37944 188.064C1.37944 192.662 1.49439 193.581 2.06916 193.581C2.63105 193.581 2.75888 194.348 2.75888 197.72C2.75888 201.091 2.88671 201.858 3.4486 201.858C3.9852 201.858 4.13832 202.471 4.13832 204.617C4.13832 206.763 4.29144 207.376 4.82804 207.376C5.36464 207.376 5.51776 207.989 5.51776 210.135C5.51776 212.281 5.67087 212.893 6.20748 212.893C6.71833 212.893 6.8972 213.43 6.8972 214.963C6.8972 216.495 7.07606 217.032 7.58692 217.032C8.09777 217.032 8.27664 217.568 8.27664 219.101C8.27664 220.633 8.4555 221.17 8.96636 221.17C9.42617 221.17 9.65607 221.63 9.65607 222.55C9.65607 223.469 9.88598 223.929 10.3458 223.929C10.8406 223.929 11.0355 224.434 11.0355 225.719C11.0355 226.886 11.2755 227.601 11.7252 227.774C12.1285 227.928 12.415 228.618 12.415 229.432C12.415 230.365 12.6435 230.826 13.1047 230.826C13.5254 230.826 13.7944 231.255 13.7944 231.926C13.7944 232.532 14.1048 233.146 14.4841 233.292C14.8635 233.437 15.1738 234.08 15.1738 234.72C15.1738 235.448 15.4322 235.884 15.8636 235.884C16.3234 235.884 16.5533 236.344 16.5533 237.264C16.5533 238.183 16.7832 238.643 17.243 238.643C17.626 238.643 17.9327 239.052 17.9327 239.563C17.9327 240.073 18.2394 240.482 18.6224 240.482C19.0514 240.482 19.3121 240.916 19.3121 241.632C19.3121 242.347 19.5729 242.781 20.0019 242.781C20.3849 242.781 20.6916 243.19 20.6916 243.701C20.6916 244.212 20.9983 244.621 21.3813 244.621C21.7607 244.621 22.071 244.931 22.071 245.31C22.071 245.69 22.2738 246 22.5221 246C22.7699 246 23.1028 246.517 23.2615 247.15C23.4201 247.782 23.8381 248.299 24.1898 248.299C24.5421 248.299 24.8299 248.713 24.8299 249.219C24.8299 249.73 25.1366 250.138 25.5196 250.138C25.899 250.138 26.2093 250.449 26.2093 250.828C26.2093 251.207 26.5197 251.518 26.8991 251.518C27.2784 251.518 27.5888 251.741 27.5888 252.014C27.5888 252.287 28.5199 253.441 29.6579 254.579C30.796 255.717 31.7271 256.942 31.7271 257.302C31.7271 257.661 32.0375 257.955 32.4168 257.955C32.7962 257.955 33.1065 258.266 33.1065 258.645C33.1065 259.024 33.4169 259.335 33.7963 259.335C34.1756 259.335 34.486 259.645 34.486 260.024C34.486 260.404 34.7982 260.714 35.1803 260.714C35.5619 260.714 36.2287 261.128 36.6618 261.634C37.095 262.139 37.638 262.553 37.8693 262.553C38.1001 262.553 38.7682 263.071 39.3545 263.703C39.9403 264.335 40.6364 264.852 40.9013 264.852C41.1666 264.852 41.3832 265.163 41.3832 265.542C41.3832 265.921 41.6936 266.232 42.0729 266.232C42.4522 266.232 42.7626 266.52 42.7626 266.872C42.7626 267.224 43.2799 267.642 43.9122 267.8C44.5444 267.959 45.0617 268.292 45.0617 268.54C45.0617 268.788 45.4755 268.991 45.9813 268.991C46.4871 268.991 46.9009 269.284 46.9009 269.644C46.9009 270.003 47.5217 270.434 48.2804 270.6C49.0391 270.766 49.6598 271.071 49.6598 271.276C49.6598 271.482 50.1771 271.78 50.8093 271.939C51.4416 272.097 51.9589 272.43 51.9589 272.678C51.9589 272.926 52.3727 273.129 52.8785 273.129C53.3894 273.129 53.7981 273.436 53.7981 273.819C53.7981 274.25 54.234 274.508 54.9619 274.508C55.6024 274.508 56.2453 274.819 56.3906 275.198C56.5363 275.577 57.1571 275.888 57.77 275.888C58.3834 275.888 59.0041 276.198 59.1494 276.578C59.2952 276.957 59.9159 277.267 60.5289 277.267C61.1423 277.267 61.763 277.578 61.9083 277.957C62.0573 278.345 62.7415 278.647 63.4708 278.647C64.1839 278.647 65.0783 278.957 65.4576 279.336C65.837 279.716 66.6858 280.026 67.3442 280.026C68.0027 280.026 68.6602 280.337 68.8055 280.716C68.9789 281.167 69.6953 281.406 70.8747 281.406C72.0546 281.406 72.7709 281.644 72.9438 282.095C73.1172 282.546 73.8336 282.785 75.013 282.785C76.1929 282.785 76.9093 283.024 77.0821 283.475C77.261 283.941 77.9921 284.164 79.3343 284.164C80.4268 284.164 81.6099 284.453 81.9631 284.806C82.3162 285.16 83.7789 285.522 85.2135 285.611L87.822 285.774L87.9379 265.87C88.0197 251.911 88.2064 245.868 88.5646 245.638C88.8469 245.457 89.1817 243.39 89.3146 241.003C89.4465 238.634 89.7541 236.565 89.9988 236.405C90.2434 236.245 90.574 234.68 90.7335 232.928C90.8931 231.177 91.2062 229.625 91.4292 229.48C91.6522 229.335 91.9406 228.088 92.0702 226.707C92.1999 225.327 92.5388 224.12 92.8238 224.025C93.1089 223.93 93.3421 222.932 93.3421 221.807C93.3421 220.413 93.5618 219.678 94.0318 219.497C94.4815 219.324 94.7215 218.609 94.7215 217.442C94.7215 216.158 94.9165 215.652 95.4112 215.652C95.9221 215.652 96.1009 215.116 96.1009 213.583C96.1009 212.139 96.2908 211.514 96.73 211.514C97.1222 211.514 97.4574 210.781 97.6201 209.57C97.7636 208.5 98.1011 207.552 98.3701 207.462C98.6396 207.372 98.8598 206.696 98.8598 205.958C98.8598 205.072 99.0943 204.617 99.5495 204.617C100.009 204.617 100.239 204.157 100.239 203.237C100.239 202.318 100.469 201.858 100.929 201.858C101.389 201.858 101.619 201.398 101.619 200.479C101.619 199.559 101.849 199.099 102.308 199.099C102.768 199.099 102.998 198.639 102.998 197.72C102.998 196.8 103.228 196.34 103.688 196.34C104.148 196.34 104.378 195.88 104.378 194.961C104.378 194.076 104.612 193.581 105.031 193.581C105.39 193.581 105.82 192.961 105.987 192.202C106.153 191.443 106.48 190.822 106.713 190.822C106.946 190.822 107.136 190.512 107.136 190.133C107.136 189.753 107.447 189.443 107.826 189.443C108.286 189.443 108.516 188.983 108.516 188.064C108.516 187.144 108.746 186.684 109.206 186.684C109.585 186.684 109.895 186.374 109.895 185.994C109.895 185.615 110.206 185.305 110.585 185.305C111.045 185.305 111.275 184.845 111.275 183.925C111.275 183.006 111.505 182.546 111.964 182.546C112.424 182.546 112.654 182.086 112.654 181.166C112.654 180.247 112.424 179.787 111.964 179.787C111.585 179.787 111.275 179.477 111.275 179.097C111.275 178.718 110.964 178.407 110.585 178.407C110.206 178.407 109.895 178.097 109.895 177.718C109.895 177.338 109.585 177.028 109.206 177.028C108.826 177.028 108.516 176.718 108.516 176.338C108.516 175.959 108.206 175.649 107.826 175.649C107.447 175.649 107.136 175.338 107.136 174.959C107.136 174.58 106.826 174.269 106.447 174.269C106.067 174.269 105.757 173.959 105.757 173.579C105.757 173.2 105.447 172.89 105.067 172.89C104.688 172.89 104.378 172.687 104.378 172.439C104.378 172.191 103.86 171.858 103.228 171.699C102.596 171.541 102.079 171.123 102.079 170.771C102.079 170.419 101.665 170.131 101.159 170.131C100.648 170.131 100.239 169.824 100.239 169.441C100.239 169.062 100.018 168.751 99.7468 168.751C99.4755 168.751 98.9435 168.441 98.5641 168.062C98.1848 167.682 97.4753 167.372 96.9879 167.372C96.5 167.372 96.1009 167.062 96.1009 166.682C96.1009 166.303 95.7906 165.993 95.4112 165.993C95.0319 165.993 94.7215 165.802 94.7215 165.569C94.7215 165.336 94.1007 165.009 93.3421 164.843C92.5834 164.677 91.9626 164.246 91.9626 163.887C91.9626 163.504 91.5065 163.234 90.8623 163.234C90.2572 163.234 89.6429 162.923 89.4971 162.544C89.3518 162.165 88.731 161.854 88.1177 161.854C87.5047 161.854 86.884 161.544 86.7382 161.164C86.5929 160.785 86.157 160.475 85.7694 160.475C85.3822 160.475 85.0654 160.284 85.0654 160.051C85.0654 159.819 84.4447 159.492 83.686 159.325C82.9273 159.159 82.3065 158.834 82.3065 158.604C82.3065 158.375 81.4918 158.056 80.4958 157.897C79.4998 157.738 78.5752 157.321 78.4409 156.972C78.3066 156.622 77.587 156.336 76.8417 156.336C76.0958 156.336 75.4153 156.124 75.3289 155.866C75.2429 155.607 74.3481 155.261 73.3407 155.098C72.3332 154.934 71.2338 154.525 70.8972 154.189C70.5611 153.853 69.5761 153.578 68.7094 153.578C67.8422 153.578 67.1327 153.39 67.1327 153.161C67.1327 152.932 66.0462 152.596 64.7187 152.416C63.3912 152.235 62.1856 151.9 62.0403 151.671C61.8945 151.442 60.653 151.124 59.2814 150.966C57.9093 150.808 56.6715 150.504 56.5308 150.29C56.3901 150.077 54.6828 149.768 52.7373 149.603C50.7919 149.439 49.2 149.147 49.2 148.955C49.2 148.763 47.1828 148.456 44.7168 148.274C42.2508 148.091 40.1251 147.773 39.9927 147.567C39.7159 147.137 18.1497 146.725 9.77103 146.99ZM211.399 146.988C208.68 147.089 206.456 147.341 206.456 147.548C206.456 147.755 204.238 148.068 201.527 148.243C198.816 148.418 196.489 148.734 196.354 148.945C196.22 149.156 194.403 149.479 192.317 149.662C190.23 149.845 188.523 150.16 188.523 150.362C188.523 150.564 187.282 150.872 185.764 151.049C184.247 151.225 183.006 151.529 183.006 151.724C183.006 151.919 181.971 152.217 180.707 152.385C179.442 152.552 178.407 152.889 178.407 153.133C178.407 153.378 177.573 153.578 176.554 153.578C175.33 153.578 174.61 153.812 174.436 154.267C174.287 154.655 173.602 154.957 172.873 154.957C172.16 154.957 171.301 155.232 170.964 155.569C170.628 155.905 169.544 156.312 168.555 156.472C167.566 156.633 166.634 156.961 166.485 157.203C166.336 157.445 165.646 157.785 164.953 157.959C164.26 158.133 163.693 158.46 163.693 158.685C163.693 158.911 163.294 159.095 162.806 159.095C162.319 159.095 161.645 159.371 161.308 159.707C160.971 160.044 160.129 160.462 159.436 160.636C158.743 160.81 158.176 161.139 158.176 161.367C158.176 161.594 157.555 161.918 156.796 162.084C156.038 162.251 155.417 162.577 155.417 162.81C155.417 163.043 155.106 163.234 154.727 163.234C154.348 163.234 154.037 163.544 154.037 163.923C154.037 164.383 153.578 164.613 152.658 164.613C151.773 164.613 151.279 164.847 151.279 165.266C151.279 165.626 150.658 166.056 149.899 166.222C149.14 166.389 148.52 166.716 148.52 166.948C148.52 167.182 148.209 167.372 147.83 167.372C147.451 167.372 147.14 167.682 147.14 168.062C147.14 168.441 146.83 168.751 146.45 168.751C146.071 168.751 145.761 169.062 145.761 169.441C145.761 169.901 145.301 170.131 144.381 170.131C143.462 170.131 143.002 170.361 143.002 170.821C143.002 171.2 142.691 171.51 142.312 171.51C141.933 171.51 141.622 171.821 141.622 172.2C141.622 172.579 141.312 172.89 140.933 172.89C140.553 172.89 140.243 173.2 140.243 173.579C140.243 173.959 139.933 174.269 139.553 174.269C139.174 174.269 138.864 174.58 138.864 174.959C138.864 175.338 138.553 175.649 138.174 175.649C137.794 175.649 137.484 175.942 137.484 176.302C137.484 176.661 136.863 177.091 136.105 177.258C135.035 177.493 134.725 177.811 134.725 178.674C134.725 179.357 134.459 179.787 134.036 179.787C133.656 179.787 133.346 180.097 133.346 180.477C133.346 180.856 133.035 181.166 132.656 181.166C132.277 181.166 131.966 181.477 131.966 181.856C131.966 182.235 131.656 182.546 131.277 182.546C130.897 182.546 130.587 182.856 130.587 183.236C130.587 183.615 130.277 183.925 129.897 183.925C129.518 183.925 129.207 184.236 129.207 184.615C129.207 184.994 128.897 185.305 128.518 185.305C128.138 185.305 127.828 185.615 127.828 185.994C127.828 186.374 127.518 186.684 127.138 186.684C126.759 186.684 126.449 186.994 126.449 187.374C126.449 187.753 126.138 188.064 125.759 188.064C125.299 188.064 125.069 188.523 125.069 189.443C125.069 190.363 124.839 190.822 124.379 190.822C124 190.822 123.69 191.133 123.69 191.512C123.69 191.891 123.499 192.202 123.266 192.202C123.034 192.202 122.707 192.823 122.54 193.581C122.374 194.34 121.943 194.961 121.584 194.961C121.225 194.961 120.931 195.271 120.931 195.65C120.931 196.03 120.62 196.34 120.241 196.34C119.781 196.34 119.551 196.8 119.551 197.72C119.551 198.639 119.321 199.099 118.862 199.099C118.402 199.099 118.172 199.559 118.172 200.479C118.172 201.398 117.942 201.858 117.482 201.858C117.062 201.858 116.793 202.287 116.793 202.958C116.793 203.563 116.482 204.178 116.103 204.323C115.723 204.469 115.413 205.09 115.413 205.703C115.413 206.316 115.103 206.937 114.723 207.082C114.32 207.237 114.034 207.926 114.034 208.741C114.034 209.673 113.805 210.135 113.344 210.135C112.91 210.135 112.654 210.572 112.654 211.317C112.654 211.967 112.344 212.81 111.964 213.189C111.585 213.568 111.275 214.463 111.275 215.176C111.275 215.905 110.973 216.589 110.585 216.738C110.112 216.92 109.895 217.658 109.895 219.087C109.895 220.632 109.717 221.17 109.206 221.17C108.695 221.17 108.516 221.707 108.516 223.239C108.516 224.772 108.337 225.308 107.826 225.308C107.317 225.308 107.136 225.84 107.136 227.339C107.136 228.501 106.902 229.448 106.589 229.552C106.263 229.661 105.961 231.027 105.842 232.925C105.732 234.679 105.414 236.259 105.135 236.436C104.856 236.613 104.547 238.372 104.449 240.344C104.351 242.317 104.053 244.068 103.786 244.236C103.504 244.414 103.214 247.146 103.09 250.788C102.973 254.224 102.698 257.036 102.479 257.036C102.258 257.036 102.079 261.898 102.079 267.841C102.079 274.738 102.245 278.647 102.538 278.647C102.815 278.647 102.998 280.543 102.998 283.418V288.189L105.619 288.406C107.06 288.526 108.319 288.862 108.416 289.153C108.662 289.891 138.711 289.91 138.957 289.172C139.062 288.857 141.149 288.568 144.398 288.417C147.421 288.278 149.807 287.96 149.991 287.673C150.168 287.398 151.927 287.094 153.899 286.997C156.324 286.877 157.605 286.613 157.854 286.182C158.098 285.759 159.078 285.544 160.76 285.544C162.404 285.544 163.543 285.301 163.989 284.854C164.389 284.454 165.512 284.164 166.666 284.164C168.008 284.164 168.739 283.941 168.918 283.475C169.091 283.024 169.807 282.785 170.987 282.785C172.166 282.785 172.883 282.546 173.056 282.095C173.208 281.698 173.895 281.406 174.676 281.406C175.422 281.406 176.102 281.194 176.189 280.935C176.275 280.676 177.17 280.331 178.177 280.167C179.185 280.004 180.284 279.594 180.621 279.258C180.957 278.922 181.631 278.647 182.119 278.647C182.606 278.647 183.006 278.442 183.006 278.192C183.006 277.942 183.82 277.608 184.816 277.448C185.812 277.289 186.737 276.873 186.871 276.523C187.006 276.174 187.639 275.888 188.279 275.888C188.919 275.888 189.443 275.674 189.443 275.414C189.443 275.153 189.805 274.802 190.248 274.635C190.69 274.467 191.326 274.06 191.66 273.729C191.994 273.399 192.667 273.129 193.154 273.129C193.642 273.129 194.041 272.926 194.041 272.678C194.041 272.43 194.543 272.101 195.158 271.947C195.771 271.793 196.386 271.375 196.522 271.018C196.659 270.662 197.088 270.37 197.475 270.37C197.863 270.37 198.179 270.167 198.179 269.919C198.179 269.671 198.682 269.342 199.296 269.188C199.91 269.034 200.524 268.616 200.661 268.26C200.798 267.903 201.226 267.611 201.614 267.611C202.001 267.611 202.318 267.408 202.318 267.16C202.318 266.912 202.835 266.579 203.467 266.421C204.1 266.262 204.617 265.844 204.617 265.492C204.617 265.14 204.927 264.852 205.307 264.852C205.686 264.852 205.996 264.542 205.996 264.163C205.996 263.783 206.213 263.473 206.478 263.473C206.743 263.473 207.439 262.956 208.025 262.323C208.611 261.691 209.246 261.174 209.437 261.174C209.974 261.174 217.032 253.938 217.032 253.386C217.032 253.117 217.342 252.897 217.721 252.897C218.105 252.897 218.411 252.488 218.411 251.978C218.411 251.467 218.718 251.058 219.101 251.058C219.48 251.058 219.791 250.748 219.791 250.368C219.791 249.989 220.079 249.679 220.431 249.679C220.782 249.679 221.2 249.161 221.359 248.529C221.518 247.897 221.851 247.379 222.098 247.379C222.347 247.379 222.55 247.063 222.55 246.675C222.55 246.288 222.841 245.859 223.198 245.722C223.554 245.586 223.972 244.971 224.126 244.358C224.28 243.743 224.609 243.241 224.857 243.241C225.106 243.241 225.308 242.931 225.308 242.551C225.308 242.172 225.619 241.862 225.998 241.862C226.377 241.862 226.688 241.463 226.688 240.975C226.688 240.487 226.998 239.778 227.378 239.398C227.757 239.019 228.067 238.384 228.067 237.986C228.067 237.589 228.378 237.264 228.757 237.264C229.188 237.264 229.447 236.828 229.447 236.1C229.447 235.459 229.757 234.816 230.136 234.671C230.516 234.525 230.826 233.911 230.826 233.306C230.826 232.635 231.095 232.206 231.516 232.206C231.976 232.206 232.206 231.746 232.206 230.826C232.206 229.907 232.436 229.447 232.895 229.447C233.377 229.447 233.585 228.961 233.585 227.837C233.585 226.714 233.793 226.228 234.275 226.228C234.773 226.228 234.964 225.717 234.964 224.389C234.964 223.06 235.156 222.55 235.654 222.55C236.114 222.55 236.344 222.09 236.344 221.17C236.344 220.25 236.574 219.791 237.034 219.791C237.545 219.791 237.723 219.253 237.723 217.707C237.723 216.279 237.94 215.54 238.413 215.359C238.879 215.18 239.103 214.449 239.103 213.107C239.103 211.954 239.392 210.83 239.793 210.43C240.18 210.043 240.482 208.919 240.482 207.868C240.482 206.511 240.672 205.996 241.172 205.996C241.724 205.996 241.862 205.307 241.862 202.548C241.862 199.789 242 199.099 242.551 199.099C243.113 199.099 243.241 198.333 243.241 194.961C243.241 191.677 243.377 190.822 243.899 190.822C244.437 190.822 244.584 189.463 244.704 183.388C244.811 177.956 245.005 175.902 245.425 175.763C245.842 175.625 246 174.076 246 170.131C246 166.186 245.842 164.637 245.425 164.499C245.002 164.358 244.812 162.169 244.706 156.184L244.561 148.06H243.25C242.528 148.06 241.87 147.856 241.785 147.606C241.619 147.114 219.903 146.673 211.399 146.988ZM87.9351 326.763L88.0542 350.148L122.831 350.265L157.607 350.384L157.885 349.346C158.038 348.775 158.166 338.19 158.169 325.822L158.176 303.336L151.402 303.61C147.296 303.777 144.565 304.076 144.466 304.371C144.214 305.127 105.895 305.041 105.643 304.283C105.502 303.861 103.141 303.667 96.6339 303.544L87.816 303.377L87.9351 326.763Z" fill="white"/>
<path fill-rule="evenodd" clip-rule="evenodd" d="M121.163 0.689759C121.163 1.06913 120.853 1.37952 120.473 1.37952C120.094 1.37952 119.783 1.58645 119.783 1.83936C119.783 2.09227 119.473 2.2992 119.094 2.2992C118.714 2.2992 118.404 2.59304 118.404 2.95263C118.404 3.31176 117.783 3.74217 117.024 3.90863C116.266 4.0751 115.645 4.5055 115.645 4.86464C115.645 5.22423 115.41 5.51807 115.123 5.51807C114.836 5.51807 114.129 6.02712 113.553 6.64928C112.976 7.27098 111.969 7.91429 111.315 8.07845C110.662 8.24261 110.127 8.66475 110.127 9.01653C110.127 9.36876 109.896 9.65662 109.613 9.65662C109.331 9.65662 108.296 10.4843 107.314 11.496C106.333 12.5076 105.322 13.3353 105.069 13.3353C104.816 13.3353 104.609 13.6457 104.609 14.0251C104.609 14.4045 104.298 14.7149 103.919 14.7149C103.54 14.7149 103.229 15.0252 103.229 15.4046C103.229 15.784 102.919 16.0944 102.539 16.0944C102.16 16.0944 101.85 16.4048 101.85 16.7841C101.85 17.1635 101.539 17.4739 101.16 17.4739C100.781 17.4739 100.47 17.7843 100.47 18.1636C100.47 18.543 100.16 18.8534 99.7804 18.8534C99.4011 18.8534 99.0907 19.1638 99.0907 19.5432C99.0907 19.9225 98.7803 20.2329 98.4009 20.2329C98.0215 20.2329 97.7111 20.5433 97.7111 20.9227C97.7111 21.3021 97.4008 21.6124 97.0214 21.6124C96.642 21.6124 96.3316 21.9228 96.3316 22.3022C96.3316 22.6816 96.0212 22.992 95.6419 22.992C95.2625 22.992 94.9521 23.3024 94.9521 23.6817C94.9521 24.0611 94.6417 24.3715 94.2624 24.3715C93.883 24.3715 93.5726 24.5881 93.5726 24.8534C93.5726 25.1183 93.0553 25.8145 92.423 26.4003C91.7907 26.9866 91.2734 27.6281 91.2734 27.8267C91.2734 28.0249 90.5491 28.8908 89.664 29.7502C88.7788 30.6101 88.0545 31.5201 88.0545 31.773C88.0545 32.026 87.5662 32.6886 86.9688 33.2455C86.3715 33.8023 85.7268 34.756 85.5355 35.3644C85.3442 35.9728 84.7234 36.9039 84.156 37.4337C83.5886 37.9634 82.9678 38.8946 82.7765 39.503C82.5852 40.1113 81.9502 41.0531 81.3648 41.5957C80.7794 42.1378 80.1605 43.1403 79.9894 43.8231C79.8179 44.5055 79.5098 45.0642 79.3042 45.0642C79.0987 45.0642 78.7984 45.6676 78.6361 46.4051C78.4742 47.1432 78.0438 47.8605 77.6801 48.0003C77.3164 48.1401 77.0184 48.7779 77.0184 49.4185C77.0184 50.0586 76.828 50.5823 76.5949 50.5823C76.3622 50.5823 76.0352 51.2031 75.8688 51.9618C75.7023 52.7206 75.3919 53.3414 75.179 53.3414C74.9661 53.3414 74.6557 53.9621 74.4893 54.7209C74.3228 55.4796 74.023 56.1004 73.8234 56.1004C73.6238 56.1004 73.3456 56.958 73.2049 58.006C73.0647 59.0539 72.7589 60.0371 72.5258 60.1902C72.2931 60.3433 71.9744 61.28 71.8176 62.271C71.6613 63.2624 71.3435 64.1936 71.1122 64.3402C70.8814 64.4874 70.5383 65.7455 70.3507 67.1365C70.1631 68.5275 69.8495 69.7691 69.654 69.8956C69.4586 70.022 69.2246 71.574 69.1349 73.3444L68.9712 76.5632L70.8105 76.7122C71.8222 76.7945 72.8154 77.1564 73.0178 77.5169C73.2665 77.9611 74.2051 78.1727 75.9244 78.1727C77.5683 78.1727 78.7069 78.4159 79.1534 78.8624C79.559 79.268 80.6824 79.5522 81.8793 79.5522C83.383 79.5522 83.916 79.7324 83.916 80.2419C83.916 80.7505 84.4471 80.9317 85.936 80.9317C87.3073 80.9317 88.0412 81.1533 88.221 81.6215C88.3939 82.0726 89.1103 82.3112 90.2903 82.3112C91.4697 82.3112 92.1862 82.5499 92.3595 83.001C92.5048 83.3803 93.1624 83.6907 93.8209 83.6907C94.4794 83.6907 95.3283 84.0011 95.7076 84.3805C96.087 84.7599 97.0035 85.0703 97.7438 85.0703C98.6345 85.0703 99.0907 85.3039 99.0907 85.76C99.0907 86.2143 99.545 86.4498 100.421 86.4498C101.179 86.4498 101.865 86.7464 102.016 87.1395C102.161 87.5189 102.782 87.8293 103.396 87.8293C104.009 87.8293 104.629 88.1397 104.775 88.5191C104.921 88.8984 105.541 89.2088 106.155 89.2088C106.768 89.2088 107.388 89.5192 107.534 89.8986C107.68 90.2779 108.322 90.5883 108.963 90.5883C109.691 90.5883 110.127 90.8468 110.127 91.2781C110.127 91.6575 110.437 91.9678 110.817 91.9678C111.196 91.9678 111.506 92.1582 111.506 92.3913C111.506 92.624 112.127 92.951 112.886 93.1174C113.645 93.2839 114.265 93.7143 114.265 94.0735C114.265 94.433 114.576 94.7269 114.955 94.7269C115.334 94.7269 115.645 94.9173 115.645 95.1504C115.645 95.3831 116.266 95.71 117.024 95.8765C117.783 96.0429 118.404 96.4734 118.404 96.8325C118.404 97.2519 118.898 97.4859 119.783 97.4859C120.669 97.4859 121.163 97.2519 121.163 96.8325C121.163 96.4734 121.784 96.0429 122.542 95.8765C123.301 95.71 123.922 95.3831 123.922 95.1504C123.922 94.9173 124.232 94.7269 124.612 94.7269C124.991 94.7269 125.301 94.433 125.301 94.0735C125.301 93.7143 125.922 93.2839 126.681 93.1174C127.44 92.951 128.061 92.624 128.061 92.3913C128.061 92.1582 128.371 91.9678 128.75 91.9678C129.13 91.9678 129.44 91.6575 129.44 91.2781C129.44 90.8182 129.9 90.5883 130.82 90.5883C131.739 90.5883 132.199 90.3584 132.199 89.8986C132.199 89.4387 132.659 89.2088 133.579 89.2088C134.498 89.2088 134.958 88.9789 134.958 88.5191C134.958 88.0592 135.418 87.8293 136.338 87.8293C137.257 87.8293 137.717 87.5994 137.717 87.1395C137.717 86.6797 138.177 86.4498 139.097 86.4498C140.016 86.4498 140.476 86.2199 140.476 85.76C140.476 85.3002 140.936 85.0703 141.856 85.0703C142.775 85.0703 143.235 84.8403 143.235 84.3805C143.235 83.8696 143.772 83.6907 145.305 83.6907C146.837 83.6907 147.374 83.5119 147.374 83.001C147.374 82.4901 147.91 82.3112 149.443 82.3112C150.976 82.3112 151.512 82.1323 151.512 81.6215C151.512 81.1106 152.049 80.9317 153.582 80.9317C155.114 80.9317 155.651 80.7528 155.651 80.2419C155.651 79.7118 156.24 79.5522 158.194 79.5522C160.031 79.5522 160.812 79.3604 161.003 78.8624C161.192 78.3686 161.964 78.1727 163.724 78.1727C165.348 78.1727 166.306 77.9542 166.549 77.5298C166.812 77.0704 168.154 76.8405 171.247 76.7251C174.181 76.6152 175.639 76.3779 175.769 75.9884C175.874 75.6725 176.254 75.4136 176.612 75.4136C177.029 75.4136 177.263 74.9179 177.263 74.0341C177.263 73.2754 177.086 72.6546 176.87 72.6546C176.653 72.6546 176.337 71.1633 176.168 69.3405C175.998 67.5177 175.69 65.9138 175.483 65.7768C175.276 65.6393 174.978 64.7159 174.822 63.725C174.665 62.7336 174.355 61.8024 174.132 61.6557C173.909 61.5086 173.599 60.5774 173.442 59.5864C173.286 58.595 172.973 57.6638 172.748 57.5171C172.522 57.37 172.195 56.4742 172.021 55.5256C171.846 54.5774 171.515 53.8012 171.285 53.8012C171.056 53.8012 170.731 53.0769 170.565 52.1918C170.399 51.3066 170.096 50.5823 169.891 50.5823C169.687 50.5823 169.383 49.9615 169.216 49.2028C169.05 48.4441 168.745 47.8233 168.54 47.8233C168.334 47.8233 168.036 47.306 167.878 46.6737C167.719 46.0414 167.386 45.5241 167.138 45.5241C166.89 45.5241 166.687 45.1102 166.687 44.6044C166.687 44.0935 166.38 43.6847 165.997 43.6847C165.566 43.6847 165.308 43.2488 165.308 42.5209C165.308 41.8803 165.016 41.2448 164.659 41.1078C164.303 40.9712 163.885 40.3569 163.731 39.743C163.577 39.1286 163.247 38.6265 163 38.6265C162.751 38.6265 162.548 38.2126 162.548 37.7068C162.548 37.1959 162.242 36.7871 161.859 36.7871C161.479 36.7871 161.169 36.4767 161.169 36.0974C161.169 35.718 160.875 35.4076 160.516 35.4076C160.156 35.4076 159.726 34.7868 159.56 34.0281C159.393 33.2694 159.066 32.6486 158.833 32.6486C158.6 32.6486 158.41 32.3382 158.41 31.9588C158.41 31.5795 158.1 31.2691 157.72 31.2691C157.341 31.2691 157.03 30.9587 157.03 30.5793C157.03 30.1999 156.743 29.8895 156.39 29.8895C156.039 29.8895 155.621 29.3722 155.462 28.74C155.303 28.1077 154.97 27.5904 154.722 27.5904C154.474 27.5904 154.271 27.28 154.271 26.9006C154.271 26.5212 153.961 26.2108 153.582 26.2108C153.202 26.2108 152.892 25.894 152.892 25.5068C152.892 25.1192 152.581 24.6833 152.202 24.5379C151.823 24.3922 151.512 23.9848 151.512 23.6325C151.512 23.2803 151.202 22.992 150.823 22.992C150.443 22.992 150.133 22.6816 150.133 22.3022C150.133 21.9228 149.822 21.6124 149.443 21.6124C149.064 21.6124 148.753 21.3021 148.753 20.9227C148.753 20.5433 148.443 20.2329 148.064 20.2329C147.684 20.2329 147.374 19.9225 147.374 19.5432C147.374 19.1638 147.063 18.8534 146.684 18.8534C146.305 18.8534 145.994 18.543 145.994 18.1636C145.994 17.7843 145.684 17.4739 145.305 17.4739C144.925 17.4739 144.615 17.1635 144.615 16.7841C144.615 16.4048 144.398 16.0944 144.133 16.0944C143.868 16.0944 143.172 15.5771 142.586 14.9448C142 14.3125 141.286 13.7952 140.998 13.7952C140.711 13.7952 140.476 13.4848 140.476 13.1054C140.476 12.7261 140.166 12.4157 139.786 12.4157C139.407 12.4157 139.097 12.1053 139.097 11.7259C139.097 11.3465 138.786 11.0361 138.407 11.0361C138.028 11.0361 137.717 10.7423 137.717 10.3827C137.717 10.0236 137.096 9.59317 136.338 9.4267C135.579 9.26024 134.958 8.82983 134.958 8.4707C134.958 8.11111 134.648 7.81727 134.268 7.81727C133.889 7.81727 133.579 7.61034 133.579 7.35743C133.579 7.10452 133.268 6.89759 132.889 6.89759C132.509 6.89759 132.199 6.60375 132.199 6.24415C132.199 5.88502 131.578 5.45461 130.82 5.28815C130.061 5.12169 129.44 4.69128 129.44 4.33215C129.44 3.97255 129.13 3.67871 128.75 3.67871C128.371 3.67871 128.061 3.47179 128.061 3.21887C128.061 2.96596 127.75 2.75904 127.371 2.75904C126.991 2.75904 126.681 2.4652 126.681 2.1056C126.681 1.74647 126.06 1.31606 125.301 1.1496C124.543 0.983136 123.922 0.656193 123.922 0.423514C123.922 0.190376 123.301 0 122.542 0C121.623 0 121.163 0.22992 121.163 0.689759Z" fill="white"/>
<path fill-rule="evenodd" clip-rule="evenodd" d="M211.34 146.989C208.621 147.09 206.397 147.342 206.397 147.55C206.397 147.756 204.179 148.069 201.468 148.244C198.757 148.42 196.43 148.736 196.295 148.947C196.161 149.158 194.344 149.481 192.258 149.664C190.171 149.847 188.464 150.161 188.464 150.363C188.464 150.565 187.223 150.874 185.706 151.05C184.188 151.226 182.947 151.53 182.947 151.726C182.947 151.921 181.912 152.218 180.648 152.386C179.383 152.554 178.349 152.891 178.349 153.135C178.349 153.379 177.514 153.579 176.495 153.579C175.271 153.579 174.551 153.814 174.377 154.269C174.228 154.656 173.543 154.958 172.814 154.958C172.101 154.958 171.242 155.233 170.906 155.57C170.569 155.906 169.485 156.313 168.496 156.474C167.507 156.634 166.575 156.963 166.426 157.205C166.277 157.447 165.587 157.787 164.894 157.961C164.201 158.134 163.634 158.461 163.634 158.687C163.634 158.912 163.235 159.097 162.748 159.097C162.26 159.097 161.586 159.372 161.249 159.709C160.912 160.046 160.07 160.463 159.377 160.637C158.684 160.811 158.117 161.14 158.117 161.368C158.117 161.596 157.496 161.919 156.737 162.086C155.979 162.252 155.358 162.579 155.358 162.812C155.358 163.045 155.047 163.235 154.668 163.235C154.289 163.235 153.978 163.545 153.978 163.925C153.978 164.385 153.519 164.615 152.599 164.615C151.714 164.615 151.22 164.849 151.22 165.268C151.22 165.627 150.599 166.057 149.84 166.224C149.081 166.39 148.461 166.717 148.461 166.95C148.461 167.183 148.15 167.373 147.771 167.373C147.392 167.373 147.081 167.684 147.081 168.063C147.081 168.442 146.771 168.753 146.391 168.753C146.012 168.753 145.702 169.063 145.702 169.443C145.702 169.902 145.242 170.132 144.322 170.132C143.403 170.132 142.943 170.362 142.943 170.822C142.943 171.201 142.633 171.512 142.253 171.512C141.874 171.512 141.563 171.822 141.563 172.201C141.563 172.581 141.253 172.891 140.874 172.891C140.494 172.891 140.184 173.202 140.184 173.581C140.184 173.96 139.874 174.271 139.494 174.271C139.115 174.271 138.805 174.581 138.805 174.96C138.805 175.34 138.494 175.65 138.115 175.65C137.736 175.65 137.425 175.944 137.425 176.303C137.425 176.663 136.804 177.093 136.046 177.259C134.976 177.494 134.666 177.813 134.666 178.675C134.666 179.358 134.4 179.788 133.977 179.788C133.597 179.788 133.287 180.099 133.287 180.478C133.287 180.857 132.976 181.168 132.597 181.168C132.218 181.168 131.907 181.478 131.907 181.858C131.907 182.237 131.597 182.547 131.218 182.547C130.838 182.547 130.528 182.858 130.528 183.237C130.528 183.616 130.218 183.927 129.838 183.927C129.459 183.927 129.149 184.237 129.149 184.616C129.149 184.996 128.838 185.306 128.459 185.306C128.079 185.306 127.769 185.617 127.769 185.996C127.769 186.375 127.459 186.686 127.079 186.686C126.7 186.686 126.39 186.996 126.39 187.375C126.39 187.755 126.079 188.065 125.7 188.065C125.24 188.065 125.01 188.525 125.01 189.444C125.01 190.364 124.78 190.824 124.32 190.824C123.941 190.824 123.631 191.134 123.631 191.514C123.631 191.893 123.44 192.203 123.207 192.203C122.975 192.203 122.648 192.824 122.481 193.583C122.315 194.341 121.884 194.962 121.525 194.962C121.166 194.962 120.872 195.273 120.872 195.652C120.872 196.031 120.561 196.342 120.182 196.342C119.722 196.342 119.492 196.801 119.492 197.721C119.492 198.641 119.263 199.101 118.803 199.101C118.343 199.101 118.113 199.56 118.113 200.48C118.113 201.4 117.883 201.859 117.423 201.859C117.003 201.859 116.734 202.288 116.734 202.96C116.734 203.565 116.423 204.179 116.044 204.325C115.664 204.47 115.354 205.091 115.354 205.704C115.354 206.317 115.044 206.938 114.664 207.084C114.261 207.238 113.975 207.928 113.975 208.742C113.975 209.675 113.746 210.136 113.285 210.136C112.851 210.136 112.595 210.574 112.595 211.318C112.595 211.969 112.285 212.811 111.906 213.191C111.526 213.57 111.216 214.464 111.216 215.177C111.216 215.907 110.914 216.591 110.526 216.74C110.053 216.921 109.836 217.66 109.836 219.088C109.836 220.634 109.658 221.172 109.147 221.172C108.636 221.172 108.457 221.708 108.457 223.241C108.457 224.773 108.278 225.31 107.767 225.31C107.258 225.31 107.077 225.842 107.077 227.341C107.077 228.503 106.843 229.45 106.53 229.554C106.204 229.662 105.902 231.029 105.783 232.926C105.673 234.68 105.355 236.26 105.076 236.437C104.797 236.614 104.488 238.373 104.39 240.346C104.292 242.318 103.994 244.07 103.727 244.238C103.445 244.416 103.155 247.148 103.031 250.79C102.914 254.226 102.639 257.037 102.42 257.037C102.199 257.037 102.02 261.899 102.02 267.843C102.02 274.74 102.186 278.648 102.479 278.648C102.756 278.648 102.939 280.545 102.939 283.419V288.19L105.56 288.408C107.001 288.527 108.26 288.863 108.357 289.154C108.603 289.893 138.652 289.912 138.898 289.173C139.003 288.859 141.09 288.569 144.339 288.419C147.362 288.279 149.748 287.962 149.932 287.675C150.109 287.4 151.868 287.095 153.84 286.998C156.265 286.879 157.546 286.615 157.795 286.184C158.039 285.761 159.019 285.545 160.701 285.545C162.345 285.545 163.484 285.302 163.93 284.856C164.33 284.455 165.454 284.166 166.607 284.166C167.949 284.166 168.68 283.942 168.859 283.476C169.032 283.025 169.748 282.787 170.928 282.787C172.107 282.787 172.824 282.548 172.997 282.097C173.149 281.7 173.836 281.407 174.617 281.407C175.363 281.407 176.043 281.195 176.13 280.936C176.216 280.677 177.111 280.332 178.118 280.168C179.126 280.005 180.225 279.596 180.562 279.26C180.898 278.923 181.572 278.648 182.06 278.648C182.548 278.648 182.947 278.444 182.947 278.194C182.947 277.944 183.761 277.609 184.757 277.45C185.753 277.291 186.678 276.874 186.812 276.525C186.947 276.175 187.58 275.889 188.22 275.889C188.86 275.889 189.384 275.676 189.384 275.415C189.384 275.154 189.746 274.804 190.189 274.636C190.631 274.468 191.267 274.061 191.601 273.731C191.935 273.401 192.608 273.13 193.095 273.13C193.583 273.13 193.982 272.928 193.982 272.679C193.982 272.432 194.484 272.102 195.099 271.948C195.712 271.794 196.327 271.376 196.463 271.02C196.6 270.663 197.029 270.372 197.416 270.372C197.804 270.372 198.12 270.169 198.12 269.92C198.12 269.673 198.623 269.343 199.237 269.189C199.851 269.035 200.465 268.617 200.602 268.261C200.739 267.904 201.167 267.613 201.555 267.613C201.942 267.613 202.259 267.41 202.259 267.162C202.259 266.914 202.776 266.581 203.408 266.422C204.041 266.264 204.558 265.846 204.558 265.494C204.558 265.142 204.868 264.854 205.248 264.854C205.627 264.854 205.937 264.543 205.937 264.164C205.937 263.785 206.154 263.474 206.419 263.474C206.684 263.474 207.38 262.957 207.966 262.325C208.552 261.693 209.187 261.175 209.378 261.175C209.915 261.175 216.973 253.939 216.973 253.388C216.973 253.119 217.283 252.899 217.663 252.899C218.046 252.899 218.352 252.49 218.352 251.979C218.352 251.468 218.659 251.059 219.042 251.059C219.421 251.059 219.732 250.749 219.732 250.37C219.732 249.99 220.02 249.68 220.372 249.68C220.724 249.68 221.141 249.163 221.3 248.53C221.459 247.898 221.792 247.381 222.039 247.381C222.288 247.381 222.491 247.064 222.491 246.677C222.491 246.289 222.782 245.861 223.139 245.724C223.495 245.587 223.913 244.973 224.067 244.359C224.221 243.745 224.551 243.243 224.798 243.243C225.047 243.243 225.249 242.932 225.249 242.553C225.249 242.174 225.56 241.863 225.939 241.863C226.319 241.863 226.629 241.464 226.629 240.976C226.629 240.489 226.939 239.779 227.319 239.4C227.698 239.021 228.008 238.385 228.008 237.987C228.008 237.59 228.319 237.265 228.698 237.265C229.129 237.265 229.388 236.829 229.388 236.101C229.388 235.461 229.698 234.818 230.077 234.673C230.457 234.527 230.767 233.913 230.767 233.307C230.767 232.636 231.036 232.207 231.457 232.207C231.917 232.207 232.147 231.747 232.147 230.828C232.147 229.908 232.377 229.448 232.836 229.448C233.318 229.448 233.526 228.963 233.526 227.839C233.526 226.715 233.734 226.229 234.216 226.229C234.714 226.229 234.906 225.719 234.906 224.39C234.906 223.062 235.097 222.551 235.595 222.551C236.055 222.551 236.285 222.091 236.285 221.172C236.285 220.252 236.515 219.792 236.975 219.792C237.486 219.792 237.664 219.254 237.664 217.709C237.664 216.281 237.881 215.542 238.354 215.36C238.82 215.182 239.044 214.45 239.044 213.108C239.044 211.955 239.333 210.832 239.734 210.432C240.121 210.045 240.423 208.921 240.423 207.87C240.423 206.512 240.613 205.998 241.113 205.998C241.665 205.998 241.803 205.308 241.803 202.549C241.803 199.79 241.941 199.101 242.492 199.101C243.054 199.101 243.182 198.334 243.182 194.962C243.182 191.679 243.318 190.824 243.84 190.824C244.378 190.824 244.525 189.464 244.645 183.39C244.752 177.958 244.946 175.904 245.366 175.765C245.783 175.626 245.941 174.077 245.941 170.132C245.941 166.188 245.783 164.638 245.366 164.5C244.943 164.359 244.753 162.17 244.647 156.185L244.502 148.061H243.191C242.469 148.061 241.811 147.857 241.726 147.607C241.56 147.115 219.844 146.674 211.34 146.989Z" fill="white"/>
</g>
</svg>
